<svg xmlns="http://www.w3.org/2000/svg" width="1420" height="1536"><g><title>background</title><rect id="canvas_background" width="6456.545" height="6983.818" x="-1" y="-1" fill="none"/><g id="canvasGrid" display="none"><rect id="svg_1" width="100%" height="100%" x="0" y="0" fill="url(#gridpattern)" stroke-width="0"/></g></g><g><title>Layer 1</title><ellipse id="svg_18" cx="572.525" cy="242.809" fill="#0fffff" fill-opacity="0" stroke="#00d18d" stroke-width="2.5" rx="193.118" ry="193.118"/><ellipse id="svg_28" cx="791.299" cy="292.46" fill="#0fffff" fill-opacity="0" stroke="#00d18d" stroke-width="2.5" rx="58.589" ry="65.612" transform="rotate(34.35576629638672 791.2984619140624,292.45965576171886)"/><ellipse id="svg_30" cx="818.547" cy="295.159" fill="#0fffff" fill-opacity="0" stroke="#00d18d" stroke-width="2.5" rx="32.286" ry="37.769" transform="rotate(27.814075469970703 818.5463256835941,295.15872192382795)"/><ellipse id="svg_19" cx="635.076" cy="560.017" fill="#0fffff" fill-opacity="0" stroke="#00d18d" stroke-width="2.5" rx="128.962" ry="402.712" transform="rotate(73.50487518310547 635.0764770507811,560.0166015625001)"/><ellipse id="svg_21" cx="563.352" cy="603.142" fill="#0fffff" fill-opacity="0" stroke="#00d18d" stroke-width="2.5" rx="139.937" ry="392.201" transform="rotate(74.89974975585938 563.3521118164062,603.1417236328125)"/><ellipse id="svg_22" cx="676.745" cy="834.348" fill="#0fffff" fill-opacity="0" stroke="#00d18d" stroke-width="2.5" rx="127.491" ry="436.856" transform="rotate(34.21881103515625 676.7451171875,834.3484497070312)"/><ellipse id="svg_20" cx="743.736" cy="796.39" fill="#0fffff" fill-opacity="0" stroke="#00d18d" stroke-width="2.5" rx="124.134" ry="452.661" transform="rotate(36.18043899536133 743.7363281249999,796.3897705078126)"/><ellipse id="svg_6" cx="791.299" cy="292.46" fill="#0fffff" fill-opacity="0" stroke="#00d18d" stroke-width="2.5" rx="58.589" ry="65.612" transform="rotate(34.35576629638672 791.2987060546872,292.45989990234375)"/><ellipse id="svg_7" cx="818.547" cy="295.159" fill="#0fffff" fill-opacity="0" stroke="#00d18d" stroke-width="2.5" rx="32.286" ry="37.769" transform="rotate(27.814075469970703 818.546630859375,295.15896606445307)"/><ellipse id="svg_15" cx="564.268" cy="340.056" fill="#0fffff" fill-opacity="0" stroke="#00d18d" stroke-width="2.5" rx="115.137" ry="115.137"/><ellipse id="svg_25" cx="783.652" cy="660.462" fill="#0fffff" fill-opacity="0" stroke="#00d18d" stroke-width="2.5" rx="143.394" ry="684.918" transform="rotate(40.9021110534668 783.6522216796875,660.4619750976562)"/><ellipse id="svg_26" cx="800.705" cy="681.115" fill="#0fffff" fill-opacity="0" stroke="#00d18d" stroke-width="2.5" rx="114.355" ry="641.538" transform="rotate(40.91570281982422 800.7054443359377,681.1148071289061)"/><ellipse id="svg_4" cx="629.171" cy="722.734" fill="#0fffff" fill-opacity="0" stroke="#00d18d" stroke-width="2.5" rx="250.751" ry="250.751"/><ellipse id="svg_12" cx="725.844" cy="751.218" fill="#0fffff" fill-opacity="0" stroke="#00d18d" stroke-width="2.5" rx="232.87" ry="232.87"/><ellipse id="svg_9" cx="786.698" cy="734.047" fill="#0fffff" fill-opacity="0" stroke="#00d18d" stroke-width="2.5" rx="210.224" ry="210.224"/><ellipse id="svg_14" cx="544.942" cy="1033.991" fill="#0fffff" fill-opacity="0" stroke="#00d18d" stroke-width="2.5" rx="219.317" ry="560.611" transform="rotate(39.43370056152344 544.9422607421874,1033.9908447265625)"/><ellipse id="svg_10" cx="594.257" cy="1062.816" fill="#0fffff" fill-opacity="0" stroke="#00d18d" stroke-width="2.5" rx="200.98" ry="549.106" transform="rotate(43.03226089477539 594.2567749023432,1062.8160400390627)"/><ellipse id="svg_17" cx="568.323" cy="524.893" fill="#0fffff" fill-opacity="0" stroke="#00d18d" stroke-width="2.5" rx="42.499" ry="42.499"/></g></svg>